<?xml version="1.0" encoding="UTF-8" standalone="no"?>
<svg
   xmlns:dc="http://purl.org/dc/elements/1.1/"
   xmlns:cc="http://creativecommons.org/ns#"
   xmlns:rdf="http://www.w3.org/1999/02/22-rdf-syntax-ns#"
   xmlns:svg="http://www.w3.org/2000/svg"
   xmlns="http://www.w3.org/2000/svg"
   xmlns:sodipodi="http://sodipodi.sourceforge.net/DTD/sodipodi-0.dtd"
   xmlns:inkscape="http://www.inkscape.org/namespaces/inkscape"
   version="1.0"
   width="1498.7745"
   height="1488.202"
   viewBox="0 0 14987.745 14882.02"
   preserveAspectRatio="xMidYMid meet"
   id="svg2"
   inkscape:version="0.91 r13725"
   sodipodi:docname="Seal_of_Goryeo.svg">
  <metadata
     id="metadata18">
    <rdf:RDF>
      <cc:Work
         rdf:about="">
        <dc:format>image/svg+xml</dc:format>
        <dc:type
           rdf:resource="http://purl.org/dc/dcmitype/StillImage" />
        <dc:title></dc:title>
      </cc:Work>
    </rdf:RDF>
  </metadata>
  <defs
     id="defs16" />
  <sodipodi:namedview
     pagecolor="#ffffff"
     bordercolor="#666666"
     borderopacity="1"
     objecttolerance="10"
     gridtolerance="10"
     guidetolerance="10"
     inkscape:pageopacity="0"
     inkscape:pageshadow="2"
     inkscape:window-width="1920"
     inkscape:window-height="1018"
     id="namedview14"
     showgrid="false"
     fit-margin-top="0"
     fit-margin-left="0"
     fit-margin-right="0"
     fit-margin-bottom="0"
     inkscape:zoom="1"
     inkscape:cx="755.88974"
     inkscape:cy="730.75235"
     inkscape:window-x="-8"
     inkscape:window-y="-8"
     inkscape:window-maximized="1"
     inkscape:current-layer="svg2" />
  <g
     id="g4"
     style="fill:#ff0000;stroke:none"
     transform="translate(-701.10258,-585.5037)">
    <path
       d="m 8075,15445 c -149,-42 -283,-65 -425,-74 -74,-5 -175,-16 -225,-24 -49,-8 -141,-18 -204,-22 -140,-8 -205,-30 -319,-108 -58,-40 -92,-57 -115,-57 -75,-1 -491,-108 -581,-150 -34,-16 -91,-36 -127,-44 -37,-8 -93,-28 -125,-45 -33,-16 -96,-38 -141,-49 -111,-28 -199,-73 -276,-143 -64,-58 -92,-70 -192,-84 -77,-10 -191,-62 -257,-117 -66,-55 -112,-78 -159,-78 -32,0 -104,-16 -221,-51 -54,-16 -81,-32 -135,-79 -39,-34 -105,-78 -153,-102 -71,-35 -101,-58 -180,-139 -83,-84 -108,-103 -185,-140 -81,-38 -104,-56 -230,-179 -92,-91 -171,-157 -230,-195 -49,-32 -117,-84 -150,-115 -33,-32 -107,-88 -165,-125 -88,-58 -142,-106 -341,-304 -129,-130 -254,-264 -278,-299 -23,-35 -77,-100 -120,-145 -42,-45 -93,-111 -113,-147 -20,-36 -70,-99 -111,-140 -60,-62 -79,-89 -102,-149 -36,-91 -82,-145 -342,-393 -48,-45 -99,-108 -128,-155 -27,-43 -79,-118 -116,-166 -69,-90 -85,-123 -112,-237 -11,-47 -36,-99 -92,-190 -79,-127 -105,-188 -105,-244 0,-69 -62,-270 -101,-329 -49,-75 -116,-237 -133,-323 -31,-158 -40,-190 -67,-239 -73,-131 -108,-259 -134,-485 -7,-69 -27,-174 -44,-235 -27,-103 -29,-118 -24,-235 8,-186 -7,-280 -68,-410 -56,-122 -60,-157 -27,-246 22,-56 23,-74 23,-334 0,-224 4,-287 17,-340 12,-46 19,-124 22,-270 3,-113 10,-230 16,-260 28,-146 68,-444 80,-590 11,-145 43,-271 90,-350 77,-130 99,-225 130,-570 11,-125 34,-192 110,-320 38,-64 74,-181 106,-345 19,-92 52,-156 169,-318 19,-27 36,-63 39,-80 2,-18 8,-66 14,-107 13,-106 54,-188 140,-276 54,-56 71,-81 81,-120 25,-96 43,-135 105,-216 98,-132 122,-169 141,-228 25,-77 48,-121 80,-150 16,-14 65,-81 110,-150 80,-122 132,-179 267,-292 31,-27 112,-117 180,-202 68,-85 141,-168 162,-185 21,-17 70,-41 109,-53 63,-21 78,-31 141,-96 39,-40 96,-87 126,-105 30,-17 85,-59 121,-93 37,-34 89,-74 117,-88 53,-27 92,-62 160,-144 24,-29 69,-71 100,-94 31,-23 82,-60 112,-83 91,-69 142,-94 226,-110 43,-9 99,-25 124,-35 25,-11 79,-27 120,-35 41,-9 97,-26 125,-39 27,-13 70,-32 95,-42 64,-25 94,-47 195,-150 118,-119 158,-139 265,-130 l 78,7 28,-36 c 36,-47 49,-54 151,-70 74,-12 111,-27 269,-105 101,-50 210,-111 242,-135 51,-38 69,-46 133,-55 41,-6 112,-21 159,-33 76,-20 106,-22 280,-20 178,3 210,0 365,-27 94,-16 185,-34 204,-40 18,-5 110,-14 205,-20 204,-13 234,-19 351,-70 150,-65 162,-66 530,-64 329,2 330,2 415,30 83,26 92,27 360,30 151,1 304,-1 340,-6 55,-8 85,-5 195,17 l 129,26 86,-22 c 47,-12 97,-21 113,-21 15,0 72,23 126,51 112,59 158,65 271,36 65,-17 67,-17 155,9 64,18 129,27 225,33 93,5 146,13 170,24 19,10 80,53 135,97 82,66 113,84 169,101 38,11 103,36 145,54 213,92 274,115 333,124 58,10 146,31 275,68 39,12 71,33 135,90 81,72 160,119 273,159 33,12 73,39 120,84 38,36 95,82 126,102 31,20 92,62 137,94 44,33 125,87 180,122 55,34 140,97 189,140 48,43 123,102 165,130 42,28 98,77 125,107 26,31 89,87 140,125 50,38 106,87 124,110 18,22 62,59 98,82 85,52 123,89 173,163 22,33 78,96 123,140 51,50 93,100 110,134 15,30 55,82 88,115 34,34 88,98 122,143 34,44 108,124 164,176 221,203 471,500 543,647 31,62 64,108 123,170 61,65 84,98 99,140 22,65 91,195 158,302 40,62 52,92 64,160 21,112 57,210 106,288 38,60 42,73 48,155 5,63 15,106 32,145 42,92 75,211 82,295 9,113 38,232 106,440 46,139 61,199 65,265 4,47 13,130 22,185 9,59 15,160 14,247 -1,108 4,165 16,215 15,59 17,117 14,443 -2,310 0,389 13,459 22,113 20,166 -9,306 -21,104 -25,157 -30,390 -6,298 -20,582 -35,696 -11,90 -61,231 -127,359 -50,99 -76,189 -93,334 -11,87 -50,186 -109,274 -66,98 -70,108 -81,183 -19,138 -50,279 -74,332 -12,29 -28,74 -35,101 -15,59 -34,97 -76,153 -19,25 -52,98 -80,175 -58,162 -62,170 -125,249 -40,49 -56,81 -76,148 -43,147 -77,220 -130,285 -60,73 -76,102 -94,171 -20,78 -67,159 -147,252 -69,80 -103,147 -103,202 0,29 -46,115 -118,221 -39,58 -87,141 -107,185 -28,62 -53,97 -114,160 -43,44 -93,105 -113,135 -19,30 -72,89 -118,130 -45,41 -94,92 -107,114 -49,77 -115,138 -191,174 -46,22 -103,62 -148,103 -52,47 -93,75 -132,89 -81,30 -150,72 -244,146 -89,71 -123,91 -211,120 -36,11 -79,36 -110,63 -74,63 -144,106 -271,166 -71,33 -132,71 -168,103 -31,27 -78,58 -105,67 -111,40 -214,97 -292,165 -80,69 -108,82 -201,96 -77,11 -252,65 -320,99 -36,18 -92,40 -125,50 -32,9 -80,27 -105,40 -62,31 -250,81 -334,89 -51,4 -81,13 -120,36 -205,121 -242,132 -511,151 -100,7 -199,20 -265,36 -83,20 -120,24 -175,19 -235,-20 -355,-19 -496,4 -138,23 -141,23 -239,6 -115,-21 -142,-17 -310,41 -93,32 -118,37 -220,40 -99,2 -128,-1 -205,-22 z m 780,-550 250,-1 160,-43 160,-43 200,-3 c 189,-2 204,-4 279,-30 179,-62 266,-138 266,-231 0,-80 -75,-125 -246,-149 -92,-13 -150,-14 -388,-5 -326,13 -595,7 -716,-15 -113,-21 -334,-21 -420,0 -70,16 -302,31 -440,28 -47,-1 -236,-2 -421,-3 -320,-1 -338,0 -385,20 -69,30 -104,66 -104,107 0,70 33,106 176,195 141,87 161,96 250,114 100,19 432,38 634,36 122,-1 173,2 240,18 67,15 103,18 170,13 47,-4 198,-7 335,-8 z m 2405,-404 c 41,-11 98,-28 125,-39 28,-11 85,-34 128,-51 43,-17 105,-49 138,-72 33,-22 85,-52 116,-65 81,-36 206,-119 247,-164 43,-48 55,-88 62,-210 4,-68 1,-113 -9,-158 -19,-76 -12,-104 41,-181 22,-31 54,-84 72,-118 32,-62 87,-119 172,-180 58,-40 78,-84 78,-165 0,-89 -31,-147 -118,-218 -188,-155 -285,-268 -331,-389 -61,-157 -61,-246 0,-315 46,-53 180,-149 285,-206 90,-49 131,-66 354,-140 52,-17 120,-42 150,-55 62,-27 149,-41 330,-56 107,-8 134,-14 188,-40 71,-35 105,-77 96,-119 -14,-60 -100,-159 -161,-186 -19,-8 -65,-14 -108,-14 -66,0 -87,-5 -170,-41 -120,-51 -161,-57 -312,-45 -155,11 -471,-13 -537,-42 -124,-55 -179,-234 -156,-506 24,-290 29,-334 53,-399 46,-126 163,-228 295,-256 66,-14 428,-14 580,-1 169,15 241,38 389,126 34,20 60,26 140,31 93,5 272,-8 358,-27 22,-5 85,-16 139,-26 117,-19 137,-34 162,-119 24,-83 11,-118 -66,-181 -34,-27 -93,-78 -133,-113 -40,-35 -96,-76 -126,-89 l -55,-25 -185,11 c -144,9 -214,9 -311,-1 -124,-12 -223,-13 -565,-6 -226,5 -269,-4 -335,-71 -54,-53 -79,-116 -106,-270 -15,-79 -16,-109 -7,-180 23,-178 76,-288 172,-354 62,-43 194,-87 281,-93 137,-10 682,53 845,97 39,10 95,24 125,30 32,6 86,29 128,54 104,63 152,72 249,51 109,-24 151,-45 208,-104 89,-92 126,-180 93,-223 -20,-26 -112,-57 -248,-82 -69,-13 -145,-31 -168,-39 -29,-10 -62,-13 -96,-10 -41,4 -63,1 -102,-17 -27,-12 -96,-28 -153,-36 -85,-11 -116,-21 -169,-49 -87,-48 -153,-64 -312,-75 -74,-5 -216,-14 -315,-21 -108,-7 -191,-17 -207,-25 -76,-39 -126,-156 -135,-319 -5,-89 -2,-114 26,-230 39,-160 59,-202 122,-259 38,-34 62,-47 97,-53 41,-6 880,-8 1342,-2 143,2 172,0 215,-17 57,-22 95,-69 95,-118 0,-17 7,-67 14,-111 18,-97 10,-123 -59,-182 -53,-48 -94,-69 -215,-114 -115,-42 -157,-51 -205,-44 -36,6 -180,47 -280,80 -139,46 -500,69 -1070,70 -450,0 -461,1 -507,22 -55,25 -123,111 -168,210 -45,100 -178,262 -252,309 -53,34 -138,60 -269,84 -63,11 -145,27 -184,36 -52,11 -158,16 -421,21 -297,4 -371,3 -489,-12 -94,-12 -164,-15 -221,-11 -45,4 -178,2 -296,-4 -172,-9 -221,-9 -253,2 -39,13 -40,14 -52,83 -7,39 -23,102 -34,142 -12,41 -19,82 -15,97 10,42 57,87 120,116 57,26 74,29 271,39 116,6 246,18 290,26 52,9 150,15 280,15 110,0 232,5 270,11 176,25 205,24 301,-12 81,-31 99,-34 194,-34 82,0 130,6 220,29 63,15 131,36 150,46 99,50 195,210 206,342 7,83 -20,218 -62,299 -32,65 -111,133 -171,148 -26,7 -62,19 -79,26 -17,7 -75,19 -130,25 -54,7 -158,27 -232,46 -145,36 -235,46 -607,64 -121,7 -256,18 -300,25 -127,22 -324,38 -390,32 -34,-3 -91,-19 -131,-36 -52,-22 -92,-32 -155,-36 -46,-3 -102,-8 -125,-10 -36,-4 -46,1 -95,40 -64,53 -109,125 -109,176 0,27 8,43 33,67 57,55 96,65 247,64 74,-1 167,4 207,11 41,8 81,10 94,5 12,-5 73,-11 136,-13 63,-3 144,-12 180,-20 35,-8 110,-15 166,-15 65,0 134,-8 192,-21 111,-24 633,-45 800,-31 98,8 108,11 177,53 40,24 84,55 97,69 37,39 69,117 77,189 3,36 16,89 26,116 44,109 23,221 -58,314 -111,128 -230,135 -280,16 -33,-81 -12,-178 58,-266 18,-23 28,-46 26,-60 -4,-32 -69,-74 -153,-100 -69,-21 -129,-42 -235,-82 -77,-29 -354,-31 -445,-3 -39,11 -115,21 -215,26 -85,4 -195,15 -244,24 -102,18 -214,21 -268,6 -28,-8 -81,-7 -200,5 -89,8 -233,15 -319,15 -136,0 -166,-3 -214,-21 -99,-37 -179,-128 -268,-306 -21,-40 -28,-72 -33,-150 -8,-120 -19,-141 -121,-225 -41,-34 -86,-81 -99,-104 -28,-48 -79,-241 -93,-351 -6,-49 -18,-89 -39,-125 -79,-138 -155,-387 -187,-607 -20,-142 -42,-231 -64,-255 -9,-10 -50,-45 -91,-76 -41,-32 -95,-79 -120,-105 -56,-59 -94,-78 -195,-100 -44,-10 -104,-26 -134,-36 -35,-12 -96,-21 -175,-24 -67,-3 -133,-8 -147,-11 -15,-3 -87,2 -160,10 -103,12 -158,14 -239,6 -58,-5 -245,-9 -417,-10 -278,0 -322,-2 -400,-20 -48,-12 -104,-31 -123,-44 -37,-24 -195,-183 -292,-292 -29,-34 -69,-93 -87,-130 -38,-79 -61,-108 -101,-124 -56,-23 -119,28 -274,223 -100,126 -152,158 -312,192 -89,19 -151,19 -204,0 -57,-20 -144,-19 -203,2 -51,18 -205,138 -241,186 -31,41 -29,127 2,160 40,43 96,52 232,37 207,-22 324,-1 384,70 45,54 24,110 -57,151 -30,16 -56,19 -140,18 -80,-1 -113,3 -153,18 -105,41 -264,168 -295,238 -25,55 -25,156 1,213 11,24 44,78 73,120 65,94 77,121 77,174 0,76 -48,116 -203,172 -61,23 -173,110 -215,169 -92,129 -78,180 76,271 111,66 143,136 102,221 -32,65 -58,79 -164,86 -61,4 -153,21 -276,53 -143,37 -206,49 -275,51 -113,3 -229,12 -420,32 -178,19 -331,13 -491,-18 -116,-22 -148,-34 -179,-69 -11,-12 -37,-31 -58,-42 -58,-29 -126,-96 -155,-153 -25,-49 -25,-53 -26,-280 l 0,-231 33,-54 c 47,-77 106,-145 147,-171 44,-27 44,-27 784,-69 91,-5 210,-14 265,-19 55,-6 136,-10 180,-11 100,0 146,-13 190,-51 46,-41 65,-102 68,-226 2,-115 -9,-141 -76,-176 -55,-28 -256,-39 -480,-25 -203,13 -348,13 -421,-1 -38,-7 -76,-4 -159,10 -60,10 -135,19 -165,19 -31,0 -93,5 -137,12 -198,28 -407,-55 -417,-168 -2,-16 1,-73 6,-127 7,-79 5,-122 -9,-213 l -18,-114 27,-169 c 23,-143 28,-207 31,-404 2,-135 8,-253 15,-278 12,-47 57,-133 115,-221 20,-29 49,-90 66,-135 37,-97 82,-153 156,-195 61,-34 73,-54 98,-153 9,-38 27,-90 40,-115 13,-25 37,-83 55,-130 17,-47 54,-146 81,-220 64,-174 81,-210 117,-251 31,-36 72,-106 72,-125 0,-6 21,-64 47,-130 37,-94 56,-130 93,-169 44,-47 47,-54 58,-132 18,-131 88,-258 249,-450 34,-41 85,-112 113,-158 28,-47 55,-87 60,-90 5,-3 15,-25 21,-48 12,-46 47,-83 208,-222 147,-127 164,-138 223,-143 65,-5 97,16 133,87 54,107 126,140 270,121 98,-12 135,-7 254,32 82,27 159,21 296,-23 134,-42 180,-67 245,-135 40,-42 77,-67 137,-95 103,-48 149,-93 158,-153 14,-91 -37,-205 -110,-248 -35,-20 -254,-64 -365,-74 -53,-4 -95,-1 -143,10 -89,21 -130,20 -176,-4 -38,-19 -71,-69 -71,-107 0,-30 42,-88 99,-136 29,-25 60,-56 69,-69 30,-46 98,-110 137,-130 30,-16 67,-23 150,-27 l 110,-7 110,-66 c 173,-104 191,-111 267,-112 61,-1 69,2 97,28 42,41 41,75 -4,115 -20,17 -52,40 -73,50 -101,52 -118,119 -51,196 52,58 110,70 293,56 210,-16 247,-14 360,14 108,27 119,26 213,-16 74,-33 163,-51 213,-43 19,3 75,15 124,26 83,20 97,21 230,10 77,-7 220,-15 316,-18 157,-6 187,-4 290,16 67,13 157,23 217,24 96,1 104,3 144,31 67,47 97,105 115,221 26,164 18,471 -16,617 -14,63 -12,158 6,229 23,88 15,261 -15,340 -26,68 -85,126 -156,152 -27,11 -67,34 -87,52 -23,20 -60,40 -95,49 -32,9 -71,21 -87,26 -16,5 -54,9 -85,9 -63,0 -314,35 -376,52 -22,6 -119,12 -215,13 -96,1 -245,7 -330,13 -85,5 -182,10 -215,9 -33,0 -215,5 -405,11 -299,10 -362,9 -475,-5 -129,-15 -204,-15 -597,3 -103,5 -166,2 -256,-11 -110,-15 -125,-16 -181,-1 -75,19 -144,58 -171,96 -28,39 -43,122 -37,199 11,135 6,134 812,102 576,-24 804,-42 944,-78 l 105,-26 95,18 c 75,14 115,16 195,10 56,-4 156,-9 222,-10 67,-1 126,-5 132,-9 6,-3 55,-18 109,-32 77,-21 136,-28 278,-34 99,-5 223,-14 275,-19 52,-6 125,-11 162,-11 37,0 107,-10 155,-21 110,-27 188,-28 281,-5 126,32 279,7 343,-56 73,-74 101,-181 97,-382 -2,-131 1,-163 22,-241 21,-81 23,-116 26,-357 3,-235 1,-281 -17,-380 -26,-147 -37,-260 -47,-493 -10,-218 -13,-228 -98,-309 -30,-29 -72,-77 -93,-107 -54,-78 -99,-105 -206,-125 -118,-21 -213,-58 -301,-116 -83,-55 -168,-82 -233,-76 -55,6 -163,48 -244,96 -116,68 -156,77 -312,74 -224,-5 -242,-5 -410,3 -145,7 -168,6 -243,-13 -136,-35 -190,-84 -146,-133 23,-25 156,-66 276,-84 144,-22 233,-54 326,-117 31,-21 67,-34 125,-44 45,-8 116,-22 157,-31 88,-19 292,-22 477,-6 132,12 176,27 242,85 64,56 103,68 237,68 67,0 136,5 155,11 19,7 65,34 102,61 97,69 109,70 228,13 91,-44 110,-49 217,-60 136,-14 163,-25 249,-106 82,-76 117,-86 221,-64 42,9 145,20 227,25 151,10 216,19 269,40 16,6 75,54 131,108 56,53 131,120 168,149 42,33 85,80 117,128 64,95 85,109 164,108 69,-1 127,-21 201,-70 28,-18 89,-46 137,-62 116,-39 141,-55 184,-118 58,-85 122,-112 215,-92 55,12 119,63 119,96 0,45 -43,87 -137,133 -50,25 -100,53 -111,63 -11,10 -48,67 -81,126 -68,120 -70,133 -46,249 21,98 9,142 -54,202 -25,25 -69,56 -96,69 -89,43 -149,87 -241,173 -49,46 -114,103 -146,126 -113,83 -135,146 -137,387 -2,187 -15,351 -36,434 -14,54 -47,101 -72,101 -27,0 -62,-51 -68,-98 -4,-26 -9,-58 -11,-72 -3,-14 -9,-104 -14,-200 -5,-96 -12,-202 -15,-235 -8,-83 11,-268 31,-308 9,-17 34,-52 55,-75 66,-75 84,-124 87,-237 3,-93 1,-109 -33,-213 -20,-61 -56,-149 -80,-195 -32,-60 -48,-107 -60,-175 -27,-148 -62,-180 -196,-181 -168,-2 -230,65 -285,312 -16,70 -16,86 -4,150 10,54 14,206 16,597 2,555 1,581 -46,755 -26,95 -23,141 15,245 33,92 30,161 -10,221 -33,50 -71,53 -108,9 -55,-65 -59,-146 -13,-263 33,-82 33,-118 -4,-252 -50,-185 -62,-309 -48,-509 6,-94 12,-297 13,-451 1,-236 4,-291 19,-352 18,-71 18,-73 -3,-175 -31,-147 -60,-248 -80,-283 -24,-43 -63,-59 -105,-45 -44,14 -222,164 -234,198 -6,15 -13,101 -17,192 -23,593 -21,559 -51,675 l -29,110 3,299 c 2,219 7,320 18,375 20,96 35,543 23,666 -5,50 -14,124 -20,165 -6,41 -12,208 -14,371 -2,242 -5,301 -18,325 -20,39 -96,109 -183,171 -130,93 -148,98 -246,58 -79,-32 -110,-31 -172,4 -115,64 -159,63 -271,-9 -79,-51 -118,-66 -190,-74 -85,-9 -278,9 -357,34 -36,11 -100,25 -141,30 -41,5 -121,23 -177,40 -123,36 -215,39 -328,11 -216,-55 -277,-65 -402,-66 -114,0 -135,3 -230,33 -132,41 -219,51 -490,58 -118,3 -253,9 -300,14 -151,17 -247,12 -325,-16 -137,-49 -136,-49 -220,-20 -89,31 -109,32 -155,9 -31,-16 -58,-17 -260,-12 -139,4 -269,13 -339,24 l -114,18 -19,45 c -27,61 -33,111 -18,170 11,50 13,51 78,79 l 67,28 370,3 c 308,3 388,0 480,-14 125,-19 261,-22 385,-10 76,8 94,6 165,-15 75,-22 95,-24 295,-22 209,2 551,26 574,41 6,4 162,7 346,8 372,0 401,4 561,69 142,57 172,61 308,34 l 117,-22 165,28 c 130,22 199,28 334,30 199,2 240,11 302,71 48,46 53,72 24,120 -45,74 -157,105 -303,85 -62,-9 -238,-15 -529,-17 -500,-3 -511,-5 -679,-86 -84,-40 -118,-52 -171,-56 -61,-4 -73,-1 -175,43 -142,62 -218,108 -243,149 -25,40 -26,63 -6,153 30,131 60,183 122,209 17,7 120,20 230,29 109,8 248,20 308,27 87,9 127,9 190,-2 96,-15 457,-33 685,-33 152,-1 175,2 290,30 69,17 141,35 160,38 65,13 130,55 222,143 115,108 136,132 183,207 21,33 55,78 76,100 51,54 69,100 69,183 0,97 41,285 93,428 24,66 50,130 56,143 7,13 19,66 27,119 15,97 49,226 77,294 26,62 90,122 169,159 l 73,33 325,3 c 383,3 412,5 499,41 65,26 70,27 261,25 107,-1 276,-9 375,-18 99,-9 245,-22 325,-29 162,-14 515,-96 538,-124 18,-23 15,-72 -7,-108 -19,-31 -143,-124 -210,-159 -29,-14 -47,-16 -105,-9 -105,11 -246,9 -291,-5 -22,-7 -72,-29 -112,-47 -148,-70 -190,-79 -373,-78 -146,1 -537,25 -661,40 -36,5 -62,-1 -130,-27 -73,-28 -93,-41 -154,-103 -79,-80 -120,-150 -164,-282 -28,-84 -31,-102 -32,-237 0,-136 1,-151 24,-201 28,-61 92,-135 144,-167 31,-19 43,-21 116,-15 45,4 213,8 372,10 217,2 315,7 389,19 55,9 130,17 167,17 37,0 125,7 196,15 146,17 574,14 633,-4 19,-6 93,-20 164,-31 153,-24 206,-37 206,-51 0,-6 17,-32 39,-58 100,-120 95,-174 -22,-293 -52,-53 -67,-74 -67,-97 0,-62 86,-125 205,-150 33,-7 79,-24 102,-37 48,-28 211,-207 220,-241 9,-40 -5,-70 -79,-162 l -72,-91 -91,0 c -57,0 -120,-7 -166,-19 -41,-10 -126,-21 -190,-24 -76,-4 -132,-12 -160,-24 -34,-13 -73,-17 -164,-17 -568,1 -1212,-42 -1375,-92 -81,-24 -143,-22 -255,9 -173,49 -209,69 -240,133 -15,32 -16,45 -6,87 6,27 23,75 39,107 25,55 31,60 82,79 31,11 89,42 129,67 l 73,47 117,7 c 82,5 126,12 151,25 55,28 140,105 140,127 0,31 -47,113 -80,142 -53,44 -81,39 -142,-25 l -48,-49 -87,0 c -106,-1 -163,-19 -251,-78 -43,-30 -79,-46 -116,-52 -139,-23 -199,-59 -242,-147 -35,-71 -39,-124 -25,-341 11,-166 20,-223 61,-382 20,-80 32,-212 30,-351 -2,-130 37,-191 157,-246 78,-36 163,-39 328,-13 142,22 202,23 445,4 45,-4 127,0 205,10 72,9 194,16 270,16 107,0 158,5 215,20 41,11 143,29 225,41 169,24 381,22 510,-6 97,-20 455,-20 590,0 150,23 429,56 520,61 44,3 150,14 235,25 86,10 172,16 190,13 68,-13 196,-53 245,-78 28,-14 58,-26 69,-26 10,0 55,-9 100,-20 49,-12 110,-19 152,-18 38,1 175,-2 304,-6 266,-9 265,-10 396,65 148,84 233,196 269,353 19,83 39,130 94,221 35,59 41,77 41,125 0,69 -31,120 -93,152 -51,26 -175,36 -241,19 -38,-9 -52,-8 -102,11 -48,17 -93,23 -239,29 -228,9 -322,21 -424,53 -70,22 -100,26 -209,26 -70,0 -143,-4 -162,-10 -19,-5 -96,-12 -170,-14 -272,-10 -406,-18 -448,-27 -38,-8 -50,-6 -93,18 -59,32 -175,151 -196,200 -17,43 -11,75 32,169 38,83 48,89 213,124 86,19 138,22 330,23 343,3 680,-16 767,-43 362,-112 572,-134 835,-90 120,21 197,72 307,205 78,95 71,77 160,370 19,63 22,254 4,313 -14,51 -68,114 -112,132 -25,11 -46,11 -114,0 -75,-12 -87,-11 -127,5 -134,55 -237,67 -362,44 -51,-9 -69,-7 -157,15 -115,30 -181,32 -259,10 -39,-11 -115,-17 -265,-21 -490,-11 -509,-9 -569,57 -37,41 -43,66 -49,197 l -3,72 81,25 c 44,14 134,35 200,47 132,23 351,92 443,138 67,34 136,48 271,57 53,3 125,14 161,24 104,30 226,41 332,28 182,-20 340,4 413,65 96,78 133,225 104,410 -22,139 -80,214 -256,330 -71,47 -144,90 -163,96 -59,20 -180,29 -265,21 -255,-26 -309,-40 -405,-101 -98,-63 -121,-67 -375,-73 -153,-3 -252,-10 -295,-20 -76,-18 -158,-20 -195,-6 -15,6 -51,26 -80,45 -67,45 -98,109 -99,205 -1,83 15,110 87,144 116,54 145,61 277,60 920,-9 1082,-2 1194,46 67,28 167,164 276,375 68,133 72,144 77,223 9,124 -14,197 -84,272 -67,73 -145,125 -209,141 -27,7 -60,20 -74,30 -48,33 -153,62 -240,67 -106,5 -369,-13 -473,-33 -99,-19 -126,-33 -177,-94 -81,-96 -125,-104 -548,-92 -288,7 -324,10 -354,27 -53,31 -72,82 -76,205 -4,91 -1,111 16,145 32,63 89,108 216,174 174,90 268,110 531,110 110,0 217,5 238,11 20,5 68,31 105,56 105,72 153,98 224,122 133,44 197,121 198,234 0,74 -18,116 -80,183 -27,30 -66,87 -86,125 -28,53 -57,88 -117,142 -45,40 -114,105 -156,146 -41,40 -91,81 -110,89 -28,12 -82,16 -246,19 -380,5 -495,50 -495,193 0,76 78,222 129,242 39,15 207,37 284,38 113,0 167,36 167,113 0,42 -15,76 -65,146 -43,60 -67,111 -95,196 -21,64 -30,77 -116,162 -109,106 -136,155 -137,250 -1,76 15,109 61,124 68,22 183,-35 313,-156 41,-38 104,-90 139,-115 98,-69 143,-114 195,-193 27,-39 85,-110 130,-157 79,-83 82,-87 104,-172 20,-77 29,-95 91,-171 87,-107 118,-169 135,-268 8,-43 18,-86 24,-96 10,-20 76,-84 131,-128 56,-44 98,-111 110,-174 22,-115 33,-143 78,-195 24,-28 55,-76 69,-106 13,-30 34,-77 46,-104 15,-33 47,-72 100,-121 95,-89 117,-128 117,-209 0,-85 28,-270 52,-341 29,-89 83,-195 119,-237 28,-33 33,-47 39,-120 9,-94 43,-250 71,-320 10,-25 27,-83 38,-127 11,-44 32,-106 46,-137 40,-88 55,-167 55,-301 0,-100 5,-144 30,-250 39,-163 54,-210 98,-303 29,-60 37,-91 42,-155 5,-69 12,-92 49,-165 73,-141 84,-182 71,-267 -15,-96 -2,-140 67,-231 87,-114 96,-151 63,-273 -12,-45 -20,-107 -20,-159 0,-70 -6,-102 -35,-182 -51,-148 -52,-168 -14,-282 31,-90 32,-100 20,-144 -6,-26 -25,-73 -42,-104 -16,-32 -36,-84 -43,-115 -17,-69 -29,-295 -27,-523 1,-166 -4,-214 -38,-370 -11,-47 -22,-110 -26,-141 -5,-44 -17,-74 -54,-133 -56,-88 -95,-198 -110,-311 -13,-92 -47,-226 -69,-270 -8,-16 -32,-54 -53,-83 -41,-59 -88,-188 -114,-317 -17,-87 -20,-93 -94,-180 -29,-33 -70,-98 -93,-145 -29,-59 -57,-99 -91,-130 -208,-191 -338,-321 -377,-378 -25,-37 -83,-105 -130,-152 -68,-67 -89,-96 -104,-138 -15,-42 -41,-77 -120,-162 -181,-193 -509,-504 -593,-563 -93,-65 -151,-132 -197,-227 -21,-45 -60,-96 -126,-166 -110,-117 -237,-264 -296,-344 -72,-96 -128,-137 -229,-165 -81,-23 -104,-36 -171,-95 -31,-27 -80,-58 -109,-69 -137,-51 -241,-110 -316,-179 l -76,-69 -171,-56 c -94,-31 -192,-69 -219,-85 -26,-16 -82,-38 -123,-47 -41,-10 -140,-44 -220,-77 -100,-40 -159,-58 -190,-58 -70,-1 -115,-15 -188,-59 -105,-63 -166,-79 -417,-112 -126,-16 -275,-41 -330,-55 -64,-16 -147,-29 -230,-34 -130,-8 -213,-23 -335,-59 -129,-39 -227,-47 -373,-29 -74,8 -170,13 -219,11 -71,-4 -111,0 -211,23 l -124,27 -94,-21 c -111,-26 -157,-27 -262,-7 -43,8 -131,15 -195,15 -72,0 -161,8 -232,20 -63,11 -155,25 -205,30 -79,9 -239,41 -345,70 -19,5 -73,12 -120,15 -47,3 -145,15 -219,27 -132,21 -136,21 -210,2 -154,-37 -239,-18 -360,80 -36,29 -71,56 -77,59 -6,3 -73,22 -150,42 -76,20 -164,46 -194,58 -45,18 -76,21 -173,22 l -118,0 -72,77 c -43,45 -88,83 -112,93 -22,9 -85,20 -140,24 -56,4 -106,11 -113,15 -7,4 -39,42 -72,85 -73,97 -162,166 -239,186 -31,8 -76,22 -101,31 -85,30 -125,42 -210,63 -206,50 -272,72 -380,125 -63,31 -135,70 -160,86 -29,19 -74,35 -125,46 -44,9 -94,22 -110,30 -29,14 -85,91 -85,119 0,24 -53,77 -122,121 -64,41 -106,89 -122,142 -4,12 -45,63 -91,112 -71,76 -88,101 -111,164 -37,99 -78,153 -160,212 -111,80 -182,153 -251,259 -36,55 -85,123 -108,150 -23,28 -67,84 -98,126 -77,104 -105,131 -194,180 -91,51 -113,71 -113,105 0,39 26,74 86,119 109,81 117,131 38,242 -60,84 -73,121 -74,205 0,111 -15,127 -166,187 -45,18 -91,41 -102,51 -30,28 -45,112 -32,179 22,116 6,287 -36,386 -9,22 -25,73 -35,114 -19,73 -47,123 -173,305 -37,54 -40,63 -44,144 -4,74 -10,97 -38,154 -52,104 -82,205 -93,314 -13,120 -36,250 -54,301 -8,21 -37,101 -65,178 -81,222 -81,224 -62,640 7,157 9,343 5,445 -8,205 1,276 50,405 50,133 59,191 45,287 -14,96 -13,100 61,403 115,472 132,524 187,594 26,32 48,77 63,123 12,40 43,116 70,168 70,140 99,234 99,322 0,61 7,94 44,198 93,263 117,322 144,363 16,23 44,83 62,132 50,137 98,227 155,294 29,32 63,74 75,93 13,18 60,69 104,113 53,52 95,104 120,150 39,72 89,131 277,331 70,75 131,151 171,217 44,70 88,126 147,182 55,53 93,100 113,139 17,34 64,95 107,140 42,45 98,108 123,141 57,74 120,135 268,257 63,53 165,143 225,202 90,87 127,114 204,153 l 93,48 117,3 c 102,3 129,0 227,-26 89,-23 121,-37 165,-70 78,-58 156,-97 267,-132 140,-43 157,-55 181,-136 26,-81 27,-157 3,-204 -13,-28 -27,-38 -62,-48 -25,-7 -82,-25 -128,-39 l -83,-27 -137,27 c -125,24 -160,27 -402,29 -265,1 -265,1 -333,-25 -37,-14 -86,-39 -110,-56 -76,-53 -222,-204 -261,-270 -60,-103 -117,-171 -217,-256 -178,-153 -187,-163 -241,-267 -41,-82 -58,-104 -97,-130 -70,-47 -95,-72 -198,-202 -120,-149 -127,-162 -153,-267 -30,-120 -46,-142 -132,-184 -95,-47 -153,-103 -190,-185 -16,-36 -49,-105 -74,-155 -74,-147 -71,-250 10,-308 27,-19 41,-22 106,-18 160,7 260,5 380,-8 69,-7 233,-16 365,-21 274,-8 283,-10 459,-105 157,-84 232,-107 346,-108 52,-1 111,4 130,11 64,21 762,15 964,-9 215,-26 1395,-14 1656,17 74,8 207,19 295,24 88,5 183,14 210,20 28,6 68,8 90,5 52,-8 233,-103 257,-136 28,-38 39,-96 27,-151 -20,-91 -68,-134 -196,-180 -67,-23 -361,-47 -588,-48 -77,0 -169,-5 -205,-10 -209,-32 -214,-32 -422,-15 -391,32 -579,38 -1313,41 -516,1 -769,6 -837,15 -85,11 -110,10 -205,-6 -86,-14 -135,-16 -248,-10 -111,5 -161,3 -240,-10 -106,-18 -194,-17 -425,5 -92,9 -143,9 -198,1 -167,-25 -193,-15 -332,128 -115,116 -185,161 -253,161 -48,0 -91,-29 -116,-78 -31,-62 -34,-96 -13,-145 23,-51 51,-73 164,-127 45,-22 108,-58 139,-80 l 55,-41 140,-12 c 187,-16 380,-15 547,2 133,14 144,14 270,-7 102,-17 170,-22 297,-22 269,2 621,-8 680,-19 32,-5 314,-10 670,-10 378,-1 640,-5 680,-12 104,-17 143,-64 166,-206 22,-137 77,-206 165,-206 50,0 85,32 140,124 44,76 76,95 141,85 53,-9 91,-31 113,-68 15,-25 15,-36 5,-71 -6,-23 -27,-62 -46,-87 -87,-115 -86,-112 -95,-227 -9,-122 -38,-263 -62,-310 -24,-46 -56,-67 -165,-109 -69,-27 -108,-48 -136,-76 -36,-35 -38,-41 -33,-81 12,-85 110,-137 260,-137 105,0 147,-22 184,-99 33,-67 37,-175 10,-228 -30,-57 -78,-73 -215,-73 -138,0 -205,-16 -257,-61 -60,-53 -41,-125 41,-164 105,-49 311,-62 478,-30 61,11 130,16 215,15 296,-5 676,1 723,11 63,14 120,62 121,102 0,36 -26,73 -66,94 -28,16 -61,18 -257,18 l -225,0 -69,30 c -40,17 -78,42 -90,58 -20,27 -20,30 -4,70 52,135 109,260 143,312 59,91 56,116 -27,203 -69,73 -89,116 -81,168 17,109 38,178 60,205 49,58 69,63 298,70 229,7 258,13 309,67 44,48 42,100 -8,151 -69,71 -145,82 -482,72 -162,-5 -254,28 -254,90 0,48 48,80 157,104 132,28 235,63 271,93 21,16 48,34 61,41 25,14 137,35 296,55 55,7 121,22 145,33 56,25 108,81 149,164 19,37 57,88 91,122 32,31 63,72 68,90 22,69 24,201 6,398 -16,187 -16,205 -1,311 14,94 17,192 16,593 -1,460 -2,482 -21,523 -26,55 -72,89 -222,163 -136,68 -176,73 -247,36 -64,-34 -71,-63 -31,-124 57,-87 81,-140 103,-224 18,-71 21,-101 16,-199 -3,-63 -9,-125 -13,-138 l -7,-23 -561,5 c -308,3 -712,11 -896,16 -184,6 -407,12 -496,14 -112,2 -191,10 -260,24 -182,38 -228,41 -499,41 -148,0 -378,5 -510,11 -132,7 -413,10 -625,8 -359,-3 -388,-2 -427,16 -52,23 -67,56 -61,138 8,126 54,180 228,271 102,54 141,60 315,48 114,-7 141,-13 223,-45 113,-45 227,-73 350,-87 58,-6 105,-18 126,-30 55,-32 298,-48 861,-54 404,-4 521,-3 609,9 97,13 123,13 225,-1 181,-24 342,-8 418,43 43,28 29,50 -76,118 -54,35 -110,79 -124,97 -14,19 -44,82 -66,140 -48,124 -48,130 29,204 28,28 68,77 90,110 61,94 66,95 334,111 127,8 341,18 476,24 345,13 382,22 483,110 56,50 178,216 208,286 25,56 30,165 9,204 -7,14 -34,50 -61,81 -26,31 -64,83 -83,115 -60,103 -121,144 -213,144 -66,0 -111,-15 -145,-47 -48,-46 -36,-86 62,-204 28,-33 53,-72 57,-87 3,-15 1,-63 -5,-107 -7,-45 -12,-91 -12,-104 0,-35 -39,-82 -86,-102 -39,-18 -59,-19 -206,-13 -127,4 -204,1 -353,-14 -117,-13 -221,-18 -270,-15 -99,7 -229,-17 -299,-55 -113,-61 -196,-223 -196,-380 l 0,-75 -69,-64 c -57,-53 -74,-76 -97,-135 -52,-128 -127,-180 -232,-159 -26,5 -74,14 -107,21 -71,14 -376,-1 -490,-25 -89,-19 -90,-19 -275,-5 -85,7 -221,15 -301,18 l -145,7 -85,51 c -46,28 -131,72 -189,98 -128,57 -194,90 -238,116 -30,19 -32,22 -26,62 15,96 116,258 177,283 38,16 207,49 334,66 81,11 104,11 190,-5 54,-10 136,-22 183,-26 47,-4 128,-15 180,-25 117,-21 318,-16 392,10 61,21 131,97 146,157 18,71 34,271 30,365 -6,125 -26,161 -156,279 -90,82 -113,97 -164,111 -50,14 -67,25 -102,65 -51,59 -170,278 -157,291 5,5 52,15 104,22 81,11 111,21 198,66 58,30 128,76 162,106 34,30 105,77 159,105 70,35 123,72 180,125 109,100 114,103 194,109 38,3 125,15 192,26 107,19 130,20 170,9 66,-17 91,-36 113,-86 18,-40 18,-48 4,-152 -9,-73 -27,-147 -55,-223 -44,-125 -51,-194 -26,-285 33,-125 97,-182 223,-201 73,-10 90,-20 97,-52 10,-44 63,-102 93,-102 59,0 84,67 41,107 -13,11 -43,31 -68,43 -25,12 -46,24 -48,25 -2,2 -10,72 -18,156 -8,85 -16,160 -19,167 -13,35 43,179 85,217 20,18 38,20 184,22 601,6 680,9 786,31 58,11 161,26 230,32 69,6 152,18 185,26 82,20 277,19 363,-2 90,-22 352,-22 480,1 127,22 405,21 516,-1 70,-15 120,-16 376,-9 162,5 337,7 387,6 51,-1 112,3 135,10 80,21 186,81 250,141 35,33 77,67 93,76 17,9 113,44 215,78 171,58 192,63 275,63 57,0 118,-6 165,-18 z m -8149,-3225 87,-44 193,-6 c 128,-5 213,-13 249,-23 30,-9 89,-17 130,-18 92,-3 315,20 391,40 69,19 230,19 324,1 57,-11 99,-12 220,-3 215,16 285,13 405,-19 l 105,-28 580,-2 c 319,-1 815,-5 1102,-9 l 522,-6 7,-37 c 5,-28 24,-54 76,-105 89,-87 108,-120 108,-180 0,-98 -46,-147 -221,-232 -97,-47 -129,-52 -206,-35 -53,13 -2193,21 -2283,9 -256,-34 -801,-41 -915,-13 -33,8 -111,38 -174,65 -63,28 -151,62 -195,76 -45,13 -110,34 -146,45 -54,17 -112,22 -340,30 -452,16 -410,10 -437,61 -29,57 -10,249 31,312 9,14 42,37 72,50 31,14 73,38 94,55 49,39 90,60 115,60 11,0 59,-20 106,-44 z m -60,-2137 c 156,-10 179,-9 207,5 30,15 31,15 49,-8 11,-13 24,-41 30,-62 7,-22 23,-78 37,-125 31,-105 32,-123 6,-191 -47,-124 -131,-196 -259,-223 -42,-9 -114,-26 -160,-37 -69,-16 -108,-19 -210,-16 -151,5 -164,10 -247,105 -45,50 -79,77 -128,102 -152,76 -180,162 -98,291 26,41 38,49 113,78 46,18 107,36 134,41 28,6 93,21 145,35 68,19 110,25 150,22 30,-3 134,-10 231,-17 z m 385,-1566 c 93,-32 123,-70 144,-184 17,-89 15,-263 -3,-320 -8,-26 -27,-63 -42,-82 l -29,-35 -55,25 c -79,36 -150,50 -271,52 -113,2 -154,10 -240,46 -30,13 -77,26 -105,30 -27,3 -88,16 -134,27 -91,22 -195,26 -448,18 -143,-4 -154,-3 -180,16 -54,40 -68,79 -68,184 0,104 15,146 65,180 23,16 39,17 185,7 165,-10 220,-6 390,27 44,9 121,19 170,23 115,10 580,-1 621,-14 z m -990,-699 c 26,-11 73,-18 141,-19 99,-2 104,-3 210,-53 156,-74 197,-82 418,-88 137,-4 214,-11 277,-25 96,-21 118,-22 548,-21 208,1 331,6 419,17 114,15 130,15 203,0 175,-35 214,-72 192,-182 -13,-63 -40,-81 -159,-107 -60,-14 -125,-29 -144,-35 -18,-6 -78,-10 -132,-10 -55,0 -103,-2 -107,-5 -13,-8 -883,-9 -924,-1 -128,25 -302,-130 -326,-292 -22,-141 -35,-283 -30,-326 10,-89 90,-218 171,-273 63,-44 137,-58 262,-50 55,3 251,6 435,6 469,-1 474,-1 578,16 98,16 191,10 337,-21 97,-20 306,-45 385,-45 36,0 121,-7 190,-15 177,-21 793,-21 903,0 43,8 105,15 137,15 32,0 94,-7 137,-15 44,-8 133,-15 203,-15 69,0 168,-5 221,-12 86,-10 113,-9 250,10 85,12 186,22 224,22 39,0 110,7 160,16 101,17 120,15 260,-28 170,-51 205,-77 205,-147 0,-40 -5,-49 -48,-90 -75,-73 -210,-158 -277,-176 -68,-17 -173,-20 -227,-5 -21,6 -72,34 -114,62 -104,69 -141,73 -284,25 -255,-86 -349,-88 -562,-12 -114,41 -180,48 -291,31 -84,-13 -113,-13 -214,-1 -102,12 -128,12 -210,-2 l -94,-16 -82,31 c -130,49 -162,54 -302,51 -71,-1 -290,3 -485,10 -403,13 -857,2 -945,-23 -27,-8 -89,-25 -137,-39 -132,-37 -355,-167 -402,-235 -50,-73 -26,-193 60,-299 19,-23 56,-82 82,-130 25,-48 65,-106 89,-129 64,-63 99,-69 362,-66 178,2 257,-2 380,-18 188,-24 223,-25 348,-4 109,17 203,11 428,-27 123,-21 195,-21 340,1 137,21 259,23 356,5 100,-18 164,-16 333,11 70,11 98,11 128,2 29,-9 57,-9 116,0 103,16 253,15 327,-2 33,-8 87,-17 120,-21 33,-3 96,-12 140,-20 44,-7 123,-19 176,-25 53,-7 101,-15 106,-19 20,-14 73,-109 84,-152 11,-41 10,-53 -5,-93 -33,-87 -90,-96 -437,-71 -203,16 -264,17 -328,8 -144,-21 -266,-87 -422,-229 -46,-41 -124,-98 -174,-126 -49,-28 -102,-62 -116,-75 -20,-19 -41,-25 -96,-30 -110,-9 -135,4 -198,102 -37,57 -68,91 -101,113 -26,18 -51,32 -56,32 -21,0 -104,44 -158,84 -47,35 -73,46 -127,55 -37,7 -106,19 -153,28 -56,10 -145,16 -260,17 -153,0 -187,-3 -273,-24 -82,-20 -104,-22 -135,-13 -162,49 -180,53 -272,53 -52,0 -169,-5 -260,-12 l -165,-11 -71,45 c -39,25 -88,61 -108,79 -54,47 -129,162 -191,294 -39,84 -67,128 -102,163 -35,35 -53,64 -66,106 -15,46 -31,70 -80,118 -68,67 -96,119 -128,240 -30,115 -49,147 -121,211 l -63,55 -1,99 c -1,147 -35,234 -154,393 -92,123 -129,191 -164,303 -41,131 -70,181 -138,239 -48,41 -55,52 -66,105 -6,32 -31,97 -54,143 -41,81 -43,89 -43,175 0,83 3,98 44,198 45,114 86,171 136,193 42,18 115,17 161,-2 z m 9204,-1020 c 95,-59 133,-159 95,-251 -8,-19 -35,-63 -59,-97 -24,-33 -51,-76 -60,-93 l -17,-33 -127,0 c -82,0 -168,7 -241,20 -214,38 -553,20 -836,-44 -36,-8 -166,-16 -325,-20 -146,-4 -317,-14 -380,-22 -80,-11 -156,-13 -250,-9 -156,7 -180,11 -180,28 0,7 -30,57 -66,112 -36,55 -72,115 -80,133 -14,30 -13,32 7,32 12,0 66,-7 120,-16 138,-22 211,-7 339,67 64,37 78,41 300,79 30,6 132,10 225,10 104,0 234,7 335,19 91,11 235,25 320,31 85,6 215,20 288,31 73,10 163,19 200,19 68,0 124,8 242,33 70,15 83,12 150,-29 z m 1936,1 c 102,-44 177,-63 276,-71 73,-6 81,-9 108,-41 85,-97 -10,-253 -217,-357 -67,-33 -114,-33 -211,0 -69,24 -86,26 -175,21 -80,-5 -128,-2 -243,18 -79,13 -176,35 -216,47 -79,25 -151,28 -423,18 l -140,-5 -85,43 c -92,47 -137,83 -151,121 -15,38 6,77 55,100 55,27 256,78 357,91 44,5 100,16 125,25 35,12 121,16 397,21 193,3 354,8 357,11 13,13 113,-10 186,-42 z M 7121,3455 c 54,-19 181,-98 231,-143 67,-60 86,-160 43,-226 -10,-14 -49,-47 -89,-73 -39,-26 -90,-63 -112,-84 -67,-60 -98,-71 -219,-80 -94,-7 -175,-22 -355,-69 -76,-20 -147,-12 -298,37 -227,72 -242,86 -242,243 l 0,76 63,31 c 35,17 96,57 137,90 41,32 97,69 123,82 26,13 55,34 63,46 19,29 33,32 184,40 69,4 134,9 145,12 30,9 195,30 241,32 23,0 61,-6 85,-14 z"
       id="path6"
       inkscape:connector-curvature="0" />
    <path
       d="m 10455,13773 c -60,-11 -114,-12 -220,-6 -77,4 -219,7 -315,7 -153,0 -182,-2 -235,-21 -54,-19 -98,-23 -415,-34 -195,-8 -389,-12 -430,-11 -107,4 -161,-12 -219,-64 -82,-74 -126,-212 -119,-374 7,-148 42,-204 198,-319 110,-82 181,-117 266,-132 79,-14 229,-7 349,15 54,10 189,17 415,21 352,7 416,14 560,59 45,15 96,26 115,26 18,0 46,5 62,11 33,13 247,12 329,-1 37,-6 103,-32 179,-70 72,-36 147,-66 188,-74 80,-17 132,-52 154,-104 14,-33 13,-41 -14,-121 -34,-103 -59,-135 -121,-155 -76,-24 -225,-36 -343,-26 -127,10 -207,30 -314,77 -115,50 -243,60 -554,44 -256,-13 -288,-11 -455,33 -114,30 -180,32 -351,11 -65,-8 -142,-15 -170,-15 -62,0 -224,-51 -287,-91 -55,-36 -90,-78 -120,-151 -22,-50 -23,-65 -23,-303 0,-167 4,-263 12,-290 15,-47 110,-167 156,-196 18,-10 68,-31 112,-45 l 80,-25 370,1 c 1092,6 1043,6 1155,-13 57,-11 134,-30 171,-43 36,-13 76,-24 87,-24 12,0 36,-18 56,-42 72,-84 108,-200 81,-264 -12,-29 -26,-40 -82,-65 -37,-16 -88,-40 -113,-52 -83,-41 -78,-110 10,-155 71,-37 145,-27 273,36 56,28 118,53 137,57 90,19 170,74 218,150 66,104 18,408 -79,501 -30,29 -32,29 -132,26 l -102,-2 -80,46 c -165,95 -87,87 -957,91 -738,4 -769,4 -825,24 -32,11 -93,26 -136,34 -102,18 -122,31 -141,100 -44,150 -38,208 32,300 31,42 47,53 92,66 96,29 286,49 465,49 201,0 312,-12 415,-44 166,-53 373,-86 538,-86 43,0 128,-8 188,-17 82,-13 170,-16 354,-16 l 245,1 79,31 c 46,18 94,44 113,63 51,49 122,177 154,278 32,100 36,147 15,193 -8,18 -17,68 -20,113 -6,97 -31,158 -83,209 -66,64 -94,74 -343,121 -52,9 -120,26 -150,37 -44,16 -88,21 -220,25 l -165,4 -145,-58 -145,-58 -395,-3 c -820,-6 -967,-5 -988,6 -31,17 -46,74 -38,154 15,161 61,240 147,251 94,12 478,26 544,20 39,-3 104,-1 146,5 72,10 146,8 544,-15 176,-10 463,32 510,75 11,10 31,22 45,26 39,12 70,36 86,66 21,41 17,62 -15,93 -24,23 -41,28 -117,36 -115,12 -171,11 -269,-7 z"
       id="path8"
       inkscape:connector-curvature="0" />
    <path
       d="m 8647,10839 c -36,-23 -54,-46 -79,-97 -32,-64 -33,-70 -33,-192 0,-214 50,-326 179,-399 70,-41 147,-57 197,-42 42,13 89,62 89,93 0,13 -30,50 -78,97 -101,98 -107,126 -61,304 14,57 6,154 -16,198 -38,72 -122,88 -198,38 z"
       id="path10"
       inkscape:connector-curvature="0" />
    <path
       d="m 11871,4750 c -34,-16 -65,-20 -147,-20 -56,0 -158,-4 -226,-10 -189,-14 -794,-20 -853,-8 -43,9 -362,21 -511,19 -28,-1 -115,-17 -194,-36 -79,-20 -175,-40 -213,-45 -85,-13 -131,-39 -158,-92 -26,-51 -19,-94 21,-133 29,-28 29,-28 127,-21 81,6 111,3 175,-13 99,-26 117,-36 212,-119 43,-39 98,-80 123,-93 24,-12 85,-61 136,-108 109,-102 142,-120 256,-135 104,-15 122,-24 160,-80 63,-91 125,-126 286,-161 88,-19 172,-58 223,-102 18,-15 61,-71 95,-123 102,-154 210,-210 342,-174 143,38 146,38 225,-2 73,-37 134,-49 183,-34 82,24 109,71 138,236 33,191 49,211 160,198 118,-13 332,28 477,92 29,13 81,50 115,82 34,33 96,82 138,110 145,97 258,258 267,381 7,99 -24,137 -160,194 -100,43 -233,71 -399,87 -64,5 -157,17 -205,25 -49,9 -154,17 -234,18 -127,2 -150,5 -186,24 -110,59 -292,79 -373,43 z m 89,-290 c 25,-5 101,-12 170,-15 252,-11 494,-48 587,-90 81,-37 82,-78 4,-193 -65,-97 -107,-127 -262,-191 -42,-18 -94,-47 -115,-65 -22,-18 -48,-38 -59,-43 -11,-6 -105,-14 -210,-18 -156,-5 -205,-11 -277,-31 -149,-41 -241,-28 -367,54 -57,38 -142,72 -177,72 -39,0 -290,88 -396,140 -139,66 -220,129 -238,185 -10,30 -9,41 9,78 39,81 79,89 391,73 95,-5 173,-4 225,3 167,24 224,30 365,36 80,4 147,9 149,11 8,8 157,3 201,-6 z"
       id="path12"
       inkscape:connector-curvature="0" />
  </g>
</svg>
